<svg height="512pt" viewBox="-3 0 512 512.0003" width="512pt" xmlns="http://www.w3.org/2000/svg"><path d="m193.0625 395.75h-42.492188v-30.417969h42.492188c2.378906 0 4.3125-1.933593 4.3125-4.3125v-40.132812h30.417969v40.132812c0 19.152344-15.582031 34.730469-34.730469 34.730469zm0 0" fill="#2a3b3b"/><path d="m149.558594 512h-74.78125c-8.398438 0-15.207032-6.808594-15.207032-15.207031v-194.636719c0-8.398438 6.808594-15.210938 15.207032-15.210938h74.78125c8.398437 0 15.207031 6.8125 15.207031 15.210938v194.636719c0 8.398437-6.808594 15.207031-15.207031 15.207031zm0 0" fill="#45686e"/><path d="m428.277344 287.214844c-8.402344 0-15.210938-6.808594-15.210938-15.210938 0-8.398437 0-126.9375 0-126.9375 0-8.398437 6.808594-15.207031 15.210938-15.207031 43.382812 0 78.675781 35.296875 78.675781 78.679687 0 43.382813-35.292969 78.675782-78.675781 78.675782zm0 0" fill="#fc5356"/><path d="m413.066406 208.539062v63.46875c0 8.398438 6.808594 15.207032 15.210938 15.207032 43.382812 0 78.675781-35.292969 78.675781-78.675782zm0 0" fill="#f70b57"/><path d="m344.078125 385.210938c-1.816406 0-3.636719-.324219-5.382813-.984376l-173.929687-66.863281c-5.914063-2.238281-15.207031-8.886719-15.207031-15.210937v-187.238282c0-6.324218 9.292968-12.96875 15.207031-15.207031l173.929687-66.867187c4.671876-1.765625 9.917969-1.128906 14.027344 1.710937 4.113282 2.839844 6.566406 7.515625 6.566406 12.515625v322.9375c0 4.996094-2.453124 9.671875-6.566406 12.511719-2.578125 1.78125-5.597656 2.695313-8.644531 2.695313zm0 0" fill="#85eef2"/><path d="m149.5625 208.539062v93.613282c0 6.324218 9.289062 12.976562 15.203125 15.210937l173.933594 66.863281c1.742187.660157 3.566406.984376 5.378906.984376 3.046875 0 6.070313-.914063 8.644531-2.695313 4.113282-2.839844 6.566406-7.515625 6.566406-12.511719v-161.464844zm0 0" fill="#00c8c8"/><path d="m164.765625 317.363281h-87.28125c-42.722656 0-77.484375-34.757812-77.484375-77.484375v-62.6875c0-42.722656 34.761719-77.484375 77.484375-77.484375h87.28125zm0 0" fill="#f5f5fc"/><path d="m0 208.539062v31.34375c0 42.722657 34.761719 77.480469 77.484375 77.480469h87.28125v-108.824219zm0 0" fill="#dce1eb"/><path d="m428.273438 417.070312c-1.816407 0-3.636719-.324218-5.382813-.984374l-84.191406-31.859376v-351.386718l84.191406-31.855469c4.671875-1.765625 9.917969-1.128906 14.027344 1.710937 4.109375 2.839844 6.566406 7.515626 6.566406 12.511719v386.65625c0 4.996094-2.457031 9.671875-6.566406 12.511719-2.578125 1.777344-5.597657 2.695312-8.644531 2.695312zm0 0" fill="#f5f5fc"/><path d="m338.699219 208.539062v175.6875l84.191406 31.859376c1.746094.660156 3.566406.984374 5.382813.984374 3.046874 0 6.070312-.914062 8.644531-2.695312 4.109375-2.839844 6.566406-7.515625 6.566406-12.511719v-193.324219zm0 0" fill="#dce1eb"/></svg>